<svg xmlns="http://www.w3.org/2000/svg" width="12" height="12" viewBox="0 0 18 17">
  <path fill="#FFF" d="M16.08.647c-.202.055-.302.1-.46.202-.164.105-.123.07-.924.85l-.869.844-2.148 2.09c-.261.256-.535.52-.602.588-.07.064-.463.451-.878.854-.415.406-.818.796-.898.874a1385.475 1385.475 0 0 0-2.745 2.673c-.06.058-.166.158-.23.223l-.122.116-.195-.22c-.108-.123-.22-.25-.252-.284-.048-.05-1.725-1.922-2.356-2.628-.226-.252-.228-.252-.388-.36a1.548 1.548 0 0 0-1.652-.02c-.163.099-.904.826-1.063 1.042A1.562 1.562 0 0 0 .182 9.12c.053.098.406.564.867 1.144 1.355 1.704 2.663 3.348 3.321 4.173l.696.876c.37.49.598.68.972.804a1.527 1.527 0 0 0 1.564-.364c.062-.062.204-.228.312-.368.108-.14.264-.333.344-.432a435.958 435.958 0 0 1 1.584-1.992c.09-.112.405-.506.698-.875.499-.627 1.132-1.426 1.845-2.318l.602-.758c.166-.209.64-.807 1.056-1.328.416-.52.884-1.111 1.042-1.308l1.905-2.395c.77-.964.812-1.022.898-1.243a1.568 1.568 0 0 0-.74-1.964 1.608 1.608 0 0 0-1.067-.124h-.001z"/>
</svg>
